<?xml version="1.0" encoding="UTF-8"?>
<svg version="1.1" viewBox="0 0 1600 1066" width="1280" height="1280" xmlns="http://www.w3.org/2000/svg">
<path transform="translate(1067,123)" d="m0 0 4 1 3 25 14 2 12 4 13-18 1-2 4 1 14 10 13 10-2 4-10 14-3 5 7 10 5 11 20-3h8l5 33v3l-16 3-12 1-2 12-3 9 1 5 17 12 3 3-2 4-10 14-9 12-7-4-16-12-5 2-11 7-5 2 1 16 113-1-1-4 6-7-1-4-4-7-13 1-3-16v-2l12-2 3-12-9-7 2-4 7-10 4 1 8 5 9-6-1-12 15-3 4 1 1 12 13 1 6-8 4 1 11 8-2 5-4 5 1 4 3 6v2l13-2 2 5 1 13-13 2-2 12 10 7-2 4-8 11-7-4-4-3-5 2-5 3 1 14-5 1h-7l6 10 2 7v15l-10 83v3l15-13 15-12 18-13 18-11 21-11 17-6 15-3h13l11 4 6 5 4 6 3 10v17l-3 15-8 24-12 25-13 22-15 22-13 17-4 5v2l11 6 12 11 5 5h22l8 2 8 4 6 8 1 3v12l-3 10-7 14-10 14-12 14-18 18-11 9-15 12-20 14-5 2 2 11v29l-4 18-6 15-3 10-7 38-12 48-4 12 19 2 23 4 16 5 5 4-1 3-8 4-21 5-36 5-54 5-61 4-85 4-96 3-54 1-87 1h-126l-95-1-88-2-85-3-77-4-55-4-49-5-28-4-21-5-6-3-2-2 1-4 8-4 16-4 11-1-4-10-12-13-10-14-8-14-5-15-1-5v-9l4-11 8-7 5-2 2-34 4-26 6-23 6-17 1-28 3-25 5-19 5-12 7-12 9-10 10-6 11-3h10l14 3 13 6 11-8 27-15 22-10 27-10 23-7 10-2-5-19-4-23-1-3-9 11-9 10-13 11-16 10-15 7-20 6-12 2-20 1-20-2-20-5-18-8-14-8-11-9-10-9-9-10-10-15-8-16-5-14-4-18-1-7v-25l3-18 5-17 10-21 10-14 12-14 13-11 14-9 16-8 15-5 14-3 7-1h28l18 3 21 7 13 6 7-8 11-8 13-5 5-1h18l12 3 11 6 12 11 7 11 4 11 2 15 4-5 15-10 14-7 8-2h9l-1 5-1 4 2 3v13l2 4v9l7-4 13-10 19-12 18-10 27-13 23-9 30-10 40-10 34-6 33-4 31-2 8-13 13-23 14-24 9-15h4l14 24 15 26 14 24 2 5 24 3 30 6 26 7 15 5-1-5-8-13-3-6-22 3h-6l-5-36 1-1 25-4 4-19 2-6-19-14v-4l13-18 7-9 4 2 17 12 4-2 10-7 9-3-3-20v-7zm-3 63-10 2-12 6-7 6-7 11-3 8-1 13 3 13 6 10 4 5 10 7 12 4h16l11-4 9-6 8-9 4-8 2-7v-16l-4-12-8-11-10-7-10-4zm177 74-9 6-5 10v8l5 10 7 5 3 1h12l8-5 4-5 2-6v-9l-4-8-6-5-4-2zm-9 56-1 4 11 4 3 1-1-7zm-744 28-4 14-6 10-9 10-14 8-2 1 1 11 1 13 5-1 14-9 17-7 9-4 3-6 1-4v-9l-10-16-4-11z" fill="#6AAD65"/>
<path transform="translate(1229,319)" d="m0 0 9 2 10 6 7 8 4 9 1 4v15l-10 83v3l15-13 15-12 18-13 18-11 21-11 17-6 15-3h13l11 4 6 5 4 6 3 10v17l-3 15-8 24-12 25-13 22-15 22-13 17-4 5v2l11 6 12 11 5 5h22l8 2 8 4 6 8 1 3v12l-3 10-7 14-10 14-12 14-18 18-11 9-15 12-20 14-5 2 2 11v29l-4 18-6 15-3 10-7 38-12 48-4 12 19 2 23 4 16 5 5 4-1 3-8 4-21 5-36 5-54 5-61 4-85 4-96 3-54 1-87 1h-126l-95-1-88-2-85-3-77-4-55-4-49-5-28-4-21-5-6-3-2-2 1-4 8-4 16-4 11-2h4l1-2 11 10 12 8 11 7 7 1h41l4-1 4 1h20l3-5h2l2 5h81l10-2 10-9 4-5h74l-3-5-16-8-26-9-3-3 5-1 37-1h18l-2-9-19-149-3-23-17 118-2 1-6-12-6-5-11-4h-11l-12 3-5 1-1-28-1-48v-69l2-50 3-32 2-7 13-4 106-1 1-21-6-63v-4l28 1-12 99-8 69-1 5 1 31 1 13 1 3 8 4 4 1 476 1 1-6 5-12 4-8 10-15 7-8h2v-2l11-9 11-7 12-6 15-5 20-3h12l16 2 2-20 11-87 20-159 1-7v-15l-6-8-2-3z" fill="#6AAD65"/>
<path transform="translate(638,329)" d="m0 0h568l10 4v2l4 2 5 9 1 4v9l-27 234-3 22-1 3h-21l-20 3-15 5-16 8-12 9-4 4h-2v2h-2l-2 4-6 7-10 15-5 11-4 12h-476l-10-4-3-2-1-3-2-33v-11l4-30 12-103 5-39 5-2 21-4 16-6 14-8 14-11 11-11-1-8 3-3 9-4 1-1 8-1 5-8 1-6-3-5v-2h8l7 1-3-3-8-3h-9l-8 5-8 7h-2l-2 4-5 4-8 3-23 11-18 5-10 2h-10l4-36 3-25 1-13 3-12 7-9h2v-2z" fill="#FDFDFD"/>
<path transform="translate(578,471)" d="m0 0 28 1-12 99-8 69-1 5 1 31 1 13 1 3 8 4 4 1 475 1-1 12-1 5 1 26h-485l2 46 2 66v23l22-1h298l95 2 64 2 86 4 61 4 56 5 38 6 19 5 6 4v4l-8 4-21 5-36 5-54 5-61 4-85 4-96 3-54 1-87 1h-126l-95-1-88-2-85-3-77-4-55-4-49-5-28-4-21-5-6-3-2-2 1-4 8-4 16-4 11-2h4l1-2 11 10 12 8 11 7 7 1h41l4-1 4 1h20l3-5h2l2 5h81l10-2 10-9 4-5h74l-3-5-16-8-26-9-3-3 5-1 37-1h18l-2-9-19-149-3-23-17 118-2 1-6-12-6-5-11-4h-11l-12 3-5 1-1-28-1-48v-69l2-50 3-32 2-7 13-4 106-1 1-21-6-63z" fill="#086E96"/>
<path transform="translate(1309,713)" d="m0 0 2 3 1 7v29l-4 18-6 15-3 10-7 38-12 48-4 12-71-6-68-4-65-3-106-3-53-1h-320l-2-54-2-62v-19h484l4 16 6 15 6 11 10 13 7 8 14 11 17 9 18 6 9 2h30l18-4 19-8 14-9 10-9 8-8 9-13 8-16 4-13 4-25 4-4 12-7z" fill="#AFE3D9"/>
<path transform="translate(1067,123)" d="m0 0 4 1 3 25 14 2 12 4 13-18 1-2 4 1 14 10 13 10-2 4-10 14-3 5 7 10 5 11 20-3h8l5 33v3l-16 3-12 1-2 12-3 9 1 5 17 12 3 3-2 4-10 14-9 12-7-4-16-12-5 2-11 7-5 2 1 16 113-1-1-4 6-7-1-4-4-7-13 1-3-16v-2l12-2 3-12-9-7 2-4 7-10 4 1 8 5 9-6-1-12 15-3 4 1 1 12 13 1 6-8 4 1 11 8-2 5-4 5 1 4 3 6v2l13-2 2 5 1 13-13 2-2 12 10 7-2 4-8 11-7-4-4-3-5 2-5 3 1 14-5 1h-8l-6-5-1-8-12-1-3 4 7 8 1 2v15l-11 86-12 97-9 70-3 20h-6l-1-4 6-48 24-208v-9l-4-10-5-5v-2l-5-1-5-2h-568l-5 2h-3v2l-5 5-4 7-2 9-3 30-5 41-1 3 2 1h-7l-14-4-16-8-9-7-13-10-8-4-1 7-3 6-4-2-5-5v-3l5-4v-2l-5-3-1-4 10-5 3-6-1-21-1-5 7-4 13-10 19-12 18-10 27-13 23-9 30-10 40-10 34-6 33-4 31-2 8-13 13-23 14-24 9-15h4l14 24 15 26 14 24 2 5 24 3 30 6 26 7 15 5-1-5-8-13-3-6-22 3h-6l-5-36 1-1 25-4 4-19 2-6-19-14v-4l13-18 7-9 4 2 17 12 4-2 10-7 9-3-3-20v-7zm-3 63-10 2-12 6-7 6-7 11-3 8-1 13 3 13 6 10 4 5 10 7 12 4h16l11-4 9-6 8-9 4-8 2-7v-16l-4-12-8-11-10-7-10-4zm177 74-9 6-5 10v8l5 10 7 5 3 1h12l8-5 4-5 2-6v-9l-4-8-6-5-4-2z" fill="#7CB7E1"/>
<path transform="translate(424,279)" d="m0 0h18l12 3 11 6 12 11 7 11 4 11 2 17-3 14-4 10-8 11-9 8-11 6h-2l2 11v13l2 1-7 6-9 15-5 16-2 12v32l-11 13-7 8-10 9-10 7-14 8-14 6-17 5-12 2-20 1-20-2-20-5-18-8-14-8-11-9-10-9-9-10-10-15-8-16-5-14-4-18-1-7v-25l3-18 5-17 10-21 10-14 12-14 13-11 14-9 16-8 15-5 14-3 7-1h28l18 3 21 7 13 6 7-8 11-8 13-5z" fill="#B0E4DA"/>
<path transform="translate(592,869)" d="m0 0h1v7l22-1h298l95 2 64 2 86 4 61 4 56 5 38 6 19 5 6 4v4l-8 4-21 5-36 5-54 5-61 4-85 4-96 3-54 1-87 1h-126l-95-1-88-2-85-3-77-4-55-4-49-5-28-4-21-5-6-3-2-2 1-4 8-4 16-4 11-2h4l1-2 11 10 12 8 11 7 7 1h41l4-1 4 1h20l3-5h2l2 5h81l10-2 10-9 4-5h74l-3-5-16-8-26-9-3-3 5-1 37-1 25-1h22l10 1z" fill="#3D9F82"/>
<path transform="translate(1174,617)" d="m0 0h12l15 2 23 8 16 8 10 8 10 9 10 13 8 14 6 17 3 15 1 11v13l-4 21-5 13-7 14-10 13-14 14-15 10-18 8-15 4-6 1h-30l-19-5-16-7-13-8-14-12-12-15-8-14-6-15-3-16-1-28 4-18 5-13 5-10 10-15 7-8h2v-2l11-9 11-7 12-6 15-5z" fill="#FF1011"/>
<path transform="translate(531,312)" d="m0 0h9l-1 5-1 4 2 3v13l2 4 1 12 1 2 1 21-3 6-6 4-5 1 1 4 5 2v4l-5 5 5 4 2 3h2l4-12 4 1 11 7 12 10 14 8 14 5 5 1 15-1 22-5 13-5 17-9 8-3 5-4 5-5 10-8 4-2h9l10 4 1 3-15-1 4 7-1 6-5 8-1 1-8 1-4 3-8 2 1 10-14 14-15 11-16 8-15 5-17 3h-27l-5-1 2 14 5 53-1 21-1 1-106 1-11 3-7-1-6-5-8-13-2-4-6-26-4-23v-31l4-20 5-12 8-12 8-7 18-11 15-6 9-4 3-9v-9l-10-16-4-11v-6l4-6 13-9 14-8z" fill="#FEB55C"/>
<path transform="translate(862,184)" d="m0 0 4 2 14 25 10 17 15 26 5 8v2l24 3 30 6 26 7 13 4-1 4-9 12-1 5 13 10 2 4-382 1-5 1v2h-3v2h-2l-1 5-2 9-5 42-5 39-2 8-9-2-16-8-9-7-13-10-8-4-1 7-3 6-4-2-5-5v-3l5-4v-2l-5-3-1-4 10-5 3-6-1-21-1-5 7-4 13-10 19-12 18-10 27-13 23-9 30-10 40-10 34-6 33-4 31-2 8-13 13-23 14-24 9-15z" fill="#AFE3D9"/>
<path transform="translate(440,539)" d="m0 0h3l9 16 5 5 4 3 3 2-3 26-2 30-1 32v69l1 48v29l-14 8-10 8-10 9-7 7-9 11-9 13-4 6h-1l1-18 1-16v-47l-3-35-5-29-6-25-9-27-11-24-11-18-9-11-9-10-11-8 2-4 18-11 22-12 23-10 28-10z" fill="#AFE3D9"/>
<path transform="translate(1246,229)" d="m0 0 4 1 1 12 13 1 6-8 4 1 11 8-2 5-4 5 1 4 3 6v2l13-2 2 5 1 13-13 2-2 12 10 7-2 4-8 11-7-4-4-3-5 2-5 3 1 14-5 1h-8l-6-5-1-8-12-1-3 4 7 8 1 2v15l-11 86-12 97-9 70-3 20h-6l-1-4 6-48 24-208v-9l-4-10-5-5v-2l-5-1-5-2h-568l-5 2h-3v2l-5 5-4 7-2 9-3 30-5 41-1 3 2 1h-7l-5-1 3-23 7-56 2-17 3-8h2v-2h3v-2l4-1 588-2-1-4 6-7-1-4-4-7-13 1-3-16v-2l12-2 3-12-9-7 2-4 7-10 4 1 8 5 9-6-1-12zm-5 31-9 6-5 10v8l5 10 7 5 3 1h12l8-5 4-5 2-6v-9l-4-8-6-5-4-2z" fill="#5E71EE"/>
<path transform="translate(787,715)" d="m0 0h286l1 26-485-1-1-4v-20z" fill="#0F469A"/>
<path transform="translate(643,341)" d="m0 0h473l5 6 1 2v8l-4 6-2 1-421 1h-50l-6-3-3-4-1-8 3-6z" fill="#A386EE"/>
<path transform="translate(424,279)" d="m0 0h18l12 3 11 6 12 11 7 11 4 11 2 17-3 14-4 10-8 11-9 8-14 8-5 2h-21l-12-3-12-6-12-11-7-11-4-9-1-4v-18l4-16 4-8 2-2 2-5 7-7 11-7 11-4z" fill="#8FD4C8"/>
<path transform="translate(466,405)" d="m0 0 4 5 8 9 5 12 2 5 6 47 2 10 7-1 19-10 4-2 5 1 5 2v2h2l3 4 3 9-3 7-9 12-18 20h-2l-1 3-11 9-15 10-16 5-7-1-6-5-8-13-2-4-6-26-4-23v-31l4-20 5-12 8-12 8-7z" fill="#FCC876"/>
<path transform="translate(587,692)" d="m0 0 13 5 475 1-1 12-2 5-55 1h-429l-1-6z" fill="#5E6FEE"/>
<path transform="translate(1229,319)" d="m0 0 9 2 10 6 7 8 4 9 1 4v15l-11 92-6 48-7 63-3 23-4 38-5 1-23-8 5-36 19-152 11-86v-15l-6-8-2-3z" fill="#0F479A"/>
<path transform="translate(877,413)" d="m0 0h28l25 3 25 6 20 7 23 11 13 8-5 12-2 15-11-7-10-6-19-9-21-7-25-5-8-1h-37l-20 3-20 5-16 6-21 10-14 9-12 9-14 12-7-6-11-11 6-7 11-10 17-12 19-11 17-8 27-9 17-4z" fill="#FF1011"/>
<path transform="translate(862,184)" d="m0 0 4 2 14 25 10 17 15 26 7 11 10 18v3l-9 1h-105l-4-2 1-4 6-11 6-10 8-13 13-23 14-24 9-15z" fill="#FF1312"/>
<path transform="translate(1039,427)" d="m0 0h17l12 4 8 5v2l4 2 7 10 4 9 1 4v16l-4 12-7 9-5 6-10 6-10 3h-16l-12-4-9-6-7-8-5-9-3-9v-14l4-13 2-5h2l1-4h2l2-4 11-8z" fill="#5D65F2"/>
<path transform="translate(884,467)" d="m0 0h15l24 3 19 5 16 6 21 11 19 14 8 7-1 4-15 15-5-2-9-8-15-10-19-9-15-5-24-4h-23l-20 3-19 6-13 6-11 6-16 12-6 5-4-2-14-14 2-4 8-8 17-12 14-8 20-8 17-5 17-3z" fill="#FF1011"/>
<path transform="translate(1246,229)" d="m0 0 4 1 1 12 13 1 6-8 4 1 11 8-2 5-4 5 1 4 3 6v2l13-2 2 5 1 13-13 2-2 12 10 7-2 4-8 11-7-4-4-3-5 2-5 3 1 14-5 1h-8l-6-5-1-8-12-1-1 2h-18l-2-2 1-4 5-6-1-4-4-7-13 1-3-16v-2l12-2 3-12-9-7 2-4 7-10 4 1 8 5 9-6-1-12zm-5 31-9 6-5 10v8l5 10 7 5 3 1h12l8-5 4-5 2-6v-9l-4-8-6-5-4-2z" fill="#ACCEE0"/>
<path transform="translate(529,694)" d="m0 0h1l20 159 3 24-18 1-42 1v-3h9l21-146 5-34z" fill="#AEE2D9"/>
<path transform="translate(881,521)" d="m0 0h20l18 3 17 6 17 9 11 9 4 3-1 4-18 18-8-6-11-7-15-6-16-3h-16l-15 3-15 6-15 10-2 2-4-1-17-17 1-4 14-11 14-8 20-7z" fill="#FF1011"/>
<path transform="translate(544,196)" d="m0 0h214l5 2 3 4-1 6-5 4h-220l-5-4-1-6 4-5z" fill="#93D5CA"/>
<path transform="translate(531,312)" d="m0 0h9l-1 5-1 4 2 3v13l2 4 1 12 1 2 1 21-3 6-6 4-5 1 1 4 5 2v4l-5 4h-2l-2 4-1-3h-9l-11-4-9-5-1-2 4-4 2-7v-9l-10-16-4-11v-6l4-6 13-9 14-8z" fill="#FEA856"/>
<path transform="translate(1301,718)" d="m0 0h3l-2 18-1 2v23l-1 3h-2l-1 5-3 16-3 5h-2v2l3 1-3 5-4 7-4 4-1 4-9 8h-2l-2 4-8 5-11 3-2-2-4 2 1-4-5 2-17 8-14 1-13-2v-4l6-3 15-4 18-8 12-8 10-9 8-8 9-13 8-16 4-13 4-25 4-4z" fill="#7DB7E0"/>
<path transform="translate(624,320)" d="m0 0h106l-1 2-21 1-2 1 7 2 302 1 191 1v1l-568 1-5 2h-3v2l-5 5-4 7-2 9-3 30-5 41-1 3 2 1h-7l-5-1 3-23 7-56 2-17 3-8h2v-2h3v-2z" fill="#7888EA"/>
<path transform="translate(578,471)" d="m0 0 28 1-12 99-8 69h-1l-2-13-4-53v-14l4-1 1-21-6-63z" fill="#5E71ED"/>
<path transform="translate(881,568)" d="m0 0h21l12 3 15 8 6 5-4 7-9 9-5 6-14-7-3-1h-17l-12 5-3 3-3-1v-2h-2l-7-8-3-3v-2h-2v-2l-3-1 1-4 10-7 13-6z" fill="#FF1011"/>
<path transform="translate(235,697)" d="m0 0h1l5 36 5 25 7 24 6 17v4l-5-1-15-5-6-1h-9l-6 1v-20l2-22 4-22 5-19z" fill="#AEE3D9"/>
<path transform="translate(488,193)" d="m0 0h13l8 3 6 7 2 4 1 9-2 12-7 8-8 3h-13l-8-3-7-8-2-8 1-13 3-6 7-6z" fill="#90D4C8"/>
<path transform="translate(886,610)" d="m0 0h11l8 4 7 8 2 5v10l-5 10-6 5-8 3h-7l-10-4-6-7-3-7v-8l2-7 8-9z" fill="#FF1011"/>
<path transform="translate(1037,450)" d="m0 0 7 1 5 5h4l8-6 7 1 4 4 1 9-6 7 1 4 5 6v7l-4 5-2 1h-8l-5-4v-2l-5 1-6 5h-8l-6-6v-7l6-7-1-4-5-6v-6l2-4z" fill="#FCC473"/>
<path transform="translate(1176,725)" d="m0 0 16 1 14 4 13 7 11 9 9 11 8 16v7l-1 1h-5l-3-5-8-15-8-10-11-8-11-5-12-3h-17l-12 3-13 7-10 8-10 14-7 14-3 1-4-3 2-9 7-13 7-9 7-7 14-9 14-5z" fill="#FEF8F1"/>
<path transform="translate(575,876)" d="m0 0h7l6 2 4 3 27 9 12 6 7 6v1l-8 1h-71l-2-1v-11l2-12 8 1 7 1z" fill="#5F2B5A"/>
<path transform="translate(539,228)" d="m0 0h90l4 4v6l-5 5h-89l-4-4-1-6z" fill="#91D5C9"/>
<path transform="translate(1336,553)" d="m0 0 13 7 12 11 5 6-19 4-27 9-15 6-6 3-3-1 6-7 10-10 7-8 9-10z" fill="#A9CEDD"/>
<path transform="translate(729,321)" d="m0 0h209l19 1v2l-11 2h-40l-118 1h-75l-7-2-1-2 3-1z" fill="#5A63F3"/>
<path transform="translate(490,876)" d="m0 0 6 5 29 10 13 7 3 3v3h-72l6-8 13-17z" fill="#5E2B5A"/>
<path transform="translate(531,312)" d="m0 0h9l-1 5-1 4 2 3v7l-1 2-4-2-2-4-8 3-14 2-1 1v17h-3-5l-2 6 3 6 2 3-1 6-4-5-7-11-4-11v-6l4-6 13-9 14-8z" fill="#5F2E5A"/>
<path transform="translate(1309,713)" d="m0 0 2 3 1 7v29l-4 18-6 15-3 10-6 5-6 8-12 12-5 2-2 4-5 3-2-1 7-5 4-4 8-7 1-5 5-5 4-8 1-1-2-1v-2l3-2v-3h2l1-12 3-9h2v-27l2-6 1-14z" fill="#ADCFE0"/>
<path transform="translate(525,337)" d="m0 0 7 1h9l1 3 1 12 1 2 1 21-2 1v-7l-6 4h-11l-1-2-7-4-2-4 1-5 1-2h2l1-8h5l1-4 1-2-12 2 2-4 4-2h3z" fill="#EF191B"/>
<path transform="translate(704,387)" d="m0 0h9l10 4 1 3-15-1 4 7-1 6-5 8-1 1-8 1-4 3-10 3-6-11 1-4 6-5 5-5 10-8z" fill="#FEB05A"/>
<path transform="translate(1223,681)" d="m0 0h7l5 4 3 5 1 4v8l-3 8-5 5-7 1-6-4-4-10v-8l4-9z" fill="#FDFAF5"/>
<path transform="translate(1130,681)" d="m0 0h7l5 4 3 6 1 10-3 9-5 5-6 1-5-2-4-5-2-7v-8l3-8z" fill="#FEFAF5"/>
<path transform="translate(578,471)" d="m0 0 18 1-5 37-6 42h-1v-13l-6-63z" fill="#ADE1DA"/>
<path transform="translate(1241,828)" d="m0 0 3 1-1 3 5-2 1 2 6-2 1 2-13 6-21 5-18 2-21-2-24-7-5-4 5-1 5 1h35l-3 2-2 1v2l13 2h7l10-2z" fill="#8FD3C8"/>
<path transform="translate(1212,479)" d="m0 0 3 1 1 8-2 13-1 11-1 6-3 29-6 46-3 21-2 5-3-1 3-25 13-113z" fill="#6973F0"/>
<path transform="translate(859,221)" d="m0 0h9l4 2v13l-3 16-3 3h-7l-3-5-2-14v-12z" fill="#FDC875"/>
<path transform="translate(494,392)" d="m0 0 5 1 15 7 13 2-3 9-3 6-14-5-10-9-6-9z" fill="#FEFEFE"/>
<path transform="translate(1043,711)" d="m0 0 17 1 6-1 6 3v1l-55 1h-124l-97-1v-1l210-1 31-1z" fill="#5A63F4"/>
<path transform="translate(1036,304)" d="m0 0 7 1 16 4 2 2v8h-34v-4z" fill="#AFE0DA"/>
<path transform="translate(551,437)" d="m0 0h2l1 4-3 14-3 5-7 14-2 3v6l6 2 1 3h-2l-2 4h-3l-4-5v-2h-2v-2l-4-2 2-4 4-2 4-17 6-10 4-6z" fill="#FF1312"/>
<path transform="translate(1214,505)" d="m0 0h2l-1 15-12 95-1 4-4-1 3-15 6-50 3-23 1-14 2-10z" fill="#5A6CEF"/>
<path transform="translate(1148,343)" d="m0 0h8l5 6 1 6-4 6-5 2-6-1-5-6v-7l4-5z" fill="#A38AED"/>
<path transform="translate(1179,343)" d="m0 0h8l5 6 1 5-3 5-3 3-7 1-6-5-1-2v-7l4-5z" fill="#A389EE"/>
<path transform="translate(594,557)" d="m0 0h1l-1 14-8 69h-1l-2-14 2-22 4-22 2-17 2-6z" fill="#6871F1"/>
<path transform="translate(1298,764)" d="m0 0h2l-1 17-2 13-7 10-9 10-9 8h-2l-2 4-5 3-2-1 7-5 4-4 8-7 1-5 5-5 4-8 1-1-2-1v-2l3-2v-3h2l1-12z" fill="#90D3C9"/>
<path transform="translate(505,846)" d="m0 0h2l-4 30-1 1h-11l2-5 8-16z" fill="#086D96"/>
<path transform="translate(572,429)" d="m0 0h2l-1 6-4 10-3 6-1 5-4 4h-2l1 3-7 1 2-5 5-9 8-13z" fill="#f11"/>
<path transform="translate(531,355)" d="m0 0 7 2 5 6-2 2-2 1-3 2-8 1-2-7 1-4z" fill="#FDB563"/>
<path transform="translate(536,473)" d="m0 0 3 1v9l6 2 1 3h-2l-2 4h-3l-4-5v-2h-2v-2l-4-2 2-4 4-2z" fill="#FF1011"/>
<path transform="translate(538,394)" d="m0 0 5 1 2 1-1 8-3 6-4-2-5-5v-3l5-4z" fill="#FEFEFE"/>
<path transform="translate(681,405)" d="m0 0 2 1 3 7 5 4 2 2-9 3-6-11 1-4z" fill="#FF1011"/>
<path transform="translate(861,261)" d="m0 0h5l3 4-2 5-1 1h-6l-3-2v-5z" fill="#FDC775"/>
<path transform="translate(1214,505)" d="m0 0h2l-1 15-2 15h-1l-1-5v-14l2-10z" fill="#5A6AF0"/>
<path transform="translate(572,462)" d="m0 0h2l-1 6-3 5-6 4h-6l5-6h2l2-4 3-4 2 1z" fill="#FF1211"/>
<path transform="translate(560,876)" d="m0 0h14l1 4-1 2h-7l-8-3z" fill="#E4AB5A"/>
<path transform="translate(583,559)" d="m0 0 1 4-2 22-2-1-1-10v-14z" fill="#9DCEDD"/>
<path transform="translate(538,366)" d="m0 0h4l-1 5-4 3h-10l1-4z" fill="#5D305B"/>
<path transform="translate(581,430)" d="m0 0h2v7l-3 13-2 2-1-1v-12z" fill="#FF1011"/>
<path transform="translate(594,557)" d="m0 0h1l-1 14-2 18h-1l-1-8v-11l2-10z" fill="#717AEF"/>
<path transform="translate(1216,331)" d="m0 0 4 1 4 4v5l-2 1-4-6-2-1z" fill="#696FF1"/>
<path transform="translate(585,527)" d="m0 0h3l-2 19-1 5h-1z" fill="#A0C7E0"/>
<path transform="translate(579,560)" d="m0 0h3v9l-1 7-2-2z" fill="#DCEFF1"/>
<path transform="translate(543,363)" d="m0 0 2 4v9l-2 1-1-11-4-1 4-1z" fill="#FF3A24"/>
<path transform="translate(595,473)" d="m0 0 3 1-3 13h-1v-10z" fill="#5A65F3"/>
<path transform="translate(1215,464)" d="m0 0 3 3-3 10h-1v-12z" fill="#5A63F4"/>
<path transform="translate(521,340)" d="m0 0h5l-2 3-5 2h-3l2-4z" fill="#5F2B5A"/>
</svg>
